PathFileType	4	(X/Y/Z)	40_2_88_p0_0-268.trc
DataRate	CameraRate	NumFrames	NumMarkers	Units	OrigDataRate	OrigDataStartFrame	OrigNumFrames
40.0	40.0	5	27	m	40.0	0	269
Frame#	Time	RHip			RKnee			RAnkle			RBigToe			RSmallToe			RHeel			LHip			LKnee			LAnkle			LBigToe			LSmallToe			LHeel			Neck			Head			Nose			RShoulder			RElbow			RWrist			RThumb			RIndex			RPinky			LShoulder			LElbow			LWrist			LThumb			LIndex			LPinky			
		X1	Y1	Z1	X2	Y2	Z2	X3	Y3	Z3	X4	Y4	Z4	X5	Y5	Z5	X6	Y6	Z6	X7	Y7	Z7	X8	Y8	Z8	X9	Y9	Z9	X10	Y10	Z10	X11	Y11	Z11	X12	Y12	Z12	X13	Y13	Z13	X14	Y14	Z14	X15	Y15	Z15	X16	Y16	Z16	X17	Y17	Z17	X18	Y18	Z18	X19	Y19	Z19	X20	Y20	Z20	X21	Y21	Z21	X22	Y22	Z22	X23	Y23	Z23	X24	Y24	Z24	X25	Y25	Z25	X26	Y26	Z26	X27	Y27	Z27	
0	0.0	0.3325468419514286	0.5828720221656017	0.8673675976475557	0.312970818310769	0.7103657438466858	1.30401307369895	0.29879797689567567	0.8506071579590981	1.7051840383012415	0.30609020818765403	0.6819552873679757	1.7184406019618799	0.3603675748405813	0.7163288243083629	1.7250155314511424	0.2642346477016258	0.9774374603817679	1.7774746110940967	0.10735045165325638	0.5915952574077239	0.8990272581300844	0.09958451277455678	0.7239868814230017	1.3255238088576096	0.09710421897459298	0.8522679049471893	1.7033815665469278	0.15475666809178543	0.6278657741519922	1.6937184584453133	0.10604040258955312	0.6814336278740434	1.714733071487413	0.0916455131110087	0.9226942708002348	1.7527067274403956	0.24075144029807177	0.4835955120747557	0.35825176991280866	0.25729670475886945	0.40772803422269605	0.11135039590486003	0.2624780748324601	0.32595522258477444	0.2539119516124648	0.37662348530111156	0.504020108846163	0.4418847772042551	0.43514549007799164	0.47406745521698196	0.6835855757717579	0.295528488631615	0.433153342276558	0.884003773306062	0.23129306006287909	0.4665778482016267	0.9557867199437108	0.22275858472020768	0.4867546738667904	0.9819473709999776	0.2177313897357628	0.42449768480435773	0.9723276653386543	0.0790487292259894	0.4604998976340633	0.42919842075579506	0.036604912893808635	0.49593149535877323	0.6867670581319271	0.13734869112063045	0.427967691966869	0.8931969442401609	0.23740022921519555	0.41980742620224026	0.9025723225981342	0.2401539267321722	0.4446326970967491	0.9616316587424014	0.20374359076308327	0.4059472544739044	0.981809942077933
1	0.025	0.3357401420613325	0.5558557665298088	0.8683584130952089	0.310830356643886	0.6957328392769875	1.30079683243778	0.2995906872097079	0.8532252115817208	1.7106961528391287	0.30025723962493084	0.6989969586085484	1.7255636377006363	0.3587041904317161	0.7360111971218959	1.7327580603540715	0.27110924668128905	0.9593380239534324	1.7717062448748253	0.10608648996562746	0.5774786632865597	0.8976438454702177	0.09862676937444423	0.7245840557614495	1.3296515782862113	0.09776758945709063	0.8556944380931838	1.7090248595768958	0.1483551319809717	0.6414363092481474	1.6997413000805623	0.10023396232601207	0.6950775656145788	1.7177208608090149	0.09236392926901701	0.9219438855851891	1.756050900319943	0.24813104335544908	0.48324555567954913	0.35786020333579877	0.2573645077530512	0.40752337777453285	0.11133176405445828	0.25745429125665825	0.33706445333311136	0.2528636536142931	0.37943214715613754	0.5153939607396296	0.4445694148148356	0.4356661566356108	0.4731191290217662	0.6833377342088076	0.29690340274344384	0.44632830649003213	0.8858901194917066	0.22321667779354776	0.49453411968456384	0.9630608334332985	0.22407371802021708	0.5021092006427686	0.987386785175025	0.21498220057959297	0.46196540715305867	0.9784904952774653	0.07926369229266769	0.46035380305266255	0.43252758732818514	0.03665259535795438	0.4956525362087413	0.6869134253524208	0.13525456087176835	0.43794866025965096	0.8944546165250725	0.23771888516009235	0.42210684899034573	0.9063381658417266	0.24012646111836577	0.4474943517149737	0.9659186908883257	0.19987061241503165	0.4049404464661073	0.9818289941441304
2	0.05	0.3357011031351318	0.5562617102006759	0.8683498869180964	0.3101019541082715	0.6969763065413196	1.3051201055444557	0.30072448049639583	0.8520469434095419	1.7058334953285434	0.30204636789077915	0.7106271537928678	1.7295997989674847	0.35843563867196754	0.7341874606352415	1.7319246936846424	0.2711480758402642	0.9596434468130266	1.7713419328016757	0.11252680352890748	0.5643540883972901	0.8956955719164333	0.09750021147141469	0.7100260431402144	1.3262956586349541	0.09768075514672213	0.8558395446295011	1.7089157600446807	0.14839076629665274	0.6415425334738796	1.6997629291131546	0.10029630857587597	0.6950698740790231	1.7176865895812974	0.09164587904702083	0.9225510887811897	1.752277252848928	0.2481543830156659	0.4832630885791758	0.3578640097347065	0.257421772147822	0.4074556064417251	0.11135145675176532	0.2575419180958704	0.3373067296383716	0.2528853608628921	0.37686400946542675	0.5041948925872048	0.4451348914106825	0.4303410442838579	0.48607144450415046	0.6873405208931087	0.2961952256900435	0.4468550138346616	0.889535433730778	0.23376806993346208	0.48562640017888475	0.9688562538543714	0.22284989930550161	0.48936094854367024	0.9854249777440565	0.2206160347805958	0.44917817663470927	0.9761756214113585	0.07925037987204848	0.46049286656389515	0.432551916171262	0.036600534736089076	0.49602490807562	0.6870108122571005	0.1388714835650404	0.4400192011428273	0.8946497064139999	0.2419553489820124	0.4265101037199675	0.9106587253334523	0.24085840209610507	0.4464227810890554	0.969993827389562	0.20387818633936433	0.4052004634583711	0.9816846859842879
3	0.075	0.3295992476266196	0.570281401570885	0.866227204717687	0.31013609340444176	0.6968015097719034	1.3049398954880023	0.3030156469389916	0.8681411670356407	1.7109384236164407	0.29968508805219785	0.6963601160295443	1.724497633528508	0.358150749857036	0.7330549160329697	1.7314460245013656	0.27341035351555876	0.9771593047062566	1.7756103348128616	0.11203145102361274	0.5647286669923705	0.8915469996133212	0.09860791488445465	0.7244195873514399	1.329576767400708	0.09772662642990815	0.855796559574684	1.7089198036988242	0.1484826153649548	0.6412629869750944	1.699646952312709	0.10046575062493601	0.6947770181202815	1.7175218459172028	0.09186542707141696	0.9229967917719782	1.7525313969008263	0.24816314988181848	0.48325865201344426	0.3578707903838328	0.25741970758543664	0.4075434615347847	0.11134705586690584	0.26250831176579287	0.32632115781776605	0.2538538328090829	0.3768558674034487	0.5041651536732709	0.44516501479488946	0.4351737391404182	0.4736274246767001	0.6865092441456698	0.2961512469825018	0.4471996230745869	0.8895800060856717	0.23416303552821166	0.48786985184342213	0.9727323318425682	0.22278315376941035	0.48933921806242353	0.9850684199465333	0.22055725014348118	0.4494681571937707	0.9762444180362896	0.07905234435147299	0.4604699560933525	0.429164767855201	0.030247049516757805	0.5087864698890869	0.687909582802976	0.13891098256678747	0.44019591603018876	0.8947311341015257	0.24243377572363603	0.42599891860083566	0.9141931161547552	0.24535950778182786	0.44701795833505326	0.9696119635380359	0.20366082814970493	0.40580859636125205	0.9819945963752909
4	0.1	0.3291016904975066	0.5708812191246423	0.862538263576217	0.31012637761438916	0.6968607836595134	1.3050416682162627	0.3007333257004915	0.8521534017744822	1.70579099056507	0.2996331934779693	0.6972137062053956	1.7250539674940157	0.3581807348754858	0.7339078072014168	1.7319596696938109	0.26675045640857414	0.994548926291568	1.7833603168793795	0.10564106881383803	0.5778733441514562	0.8934781581725763	0.0986010583010841	0.7245153601023694	1.3296722846664362	0.09772204222612384	0.855935687575779	1.7090129925787156	0.14843878402165836	0.6412920229901387	1.6998150093207764	0.10037087541616053	0.6950552990869332	1.7178331685457857	0.09168613095485975	0.9231050574942092	1.7526865805531135	0.24267588766066994	0.49563153701532636	0.35731742442541353	0.2574348449875448	0.4074406038691606	0.11132009975389609	0.26248236417683923	0.3263243728850821	0.25392729091604826	0.3768302562101015	0.504159200251347	0.44517829437792944	0.42982935369762654	0.48377616218566966	0.67639506946669	0.30144131902734567	0.43427354147002456	0.8876760650413773	0.2345289133376227	0.4851588149121536	0.9727267157432464	0.2300764077108325	0.4888931023504504	0.9849052237041045	0.22069754825592217	0.44914199351496426	0.9763039481560295	0.07923932633361294	0.46067770777137435	0.43257876417366076	0.030495466697765667	0.5089067306217075	0.6918848091090603	0.13890309666124034	0.4403911842020579	0.894794596937719	0.250070599933358	0.4250579909968469	0.9133996458676527	0.251013966309462	0.435423474375606	0.9670626416774926	0.20901211842425244	0.3954982449378963	0.9803011297830478
